PathFileType	4	(X/Y/Z)	37_1_21_p0_0-228_filt_butterworth.trc
DataRate	CameraRate	NumFrames	NumMarkers	Units	OrigDataRate	OrigDataStartFrame	OrigNumFrames
60.0	60.0	6	27	m	60.0	85	228
Frame#	Time	RHip			RKnee			RAnkle			RBigToe			RSmallToe			RHeel			LHip			LKnee			LAnkle			LBigToe			LSmallToe			LHeel			Neck			Head			Nose			RShoulder			RElbow			RWrist			RThumb			RIndex			RPinky			LShoulder			LElbow			LWrist			LThumb			LIndex			LPinky			
		X1	Y1	Z1	X2	Y2	Z2	X3	Y3	Z3	X4	Y4	Z4	X5	Y5	Z5	X6	Y6	Z6	X7	Y7	Z7	X8	Y8	Z8	X9	Y9	Z9	X10	Y10	Z10	X11	Y11	Z11	X12	Y12	Z12	X13	Y13	Z13	X14	Y14	Z14	X15	Y15	Z15	X16	Y16	Z16	X17	Y17	Z17	X18	Y18	Z18	X19	Y19	Z19	X20	Y20	Z20	X21	Y21	Z21	X22	Y22	Z22	X23	Y23	Z23	X24	Y24	Z24	X25	Y25	Z25	X26	Y26	Z26	X27	Y27	Z27	
85	1.4166666666666667	0.3690911181750589	0.7731302090184933	0.8072434747751112	0.34210531257436777	0.30309536555801747	0.9013265575084315	0.3662860953668781	-0.16335294934795408	1.035545085677945	0.32361298671032235	-0.181114472211499	0.8426814618954129	0.3828090983438225	-0.19016082801208503	0.8640073260632501	0.35774234717589715	-0.2394342180206591	1.1401937064388092	0.17675222810238572	0.7657886709027814	0.8754618241314842	0.19150738662766328	0.3023443280838968	0.9269310641579075	0.18450257961186436	-0.15604251758657384	1.0491175822244425	0.16629351678529597	-0.16125947948554412	0.8578694981101141	0.11349610664546546	-0.18223779013369623	0.919246063225668	0.20688891026381429	-0.24111966045596675	1.1197078693560716	0.28348953031513163	1.306091590000989	0.8477263624877871	0.25726533820585357	1.5454714714428655	0.7146977265724938	0.2556342587674354	1.4130634670101851	0.6699500745497238	0.42675938112412415	1.211497880226271	0.7881528942096933	0.4822211063076244	0.9337096523164511	0.878401435612659	0.4845795202647905	0.6881379880589858	0.8174645463861699	0.4289858399600008	0.5696610324989375	0.82696344873735	0.43904585683145886	0.5425930015067861	0.8189678149313221	0.46082807248216173	0.537570484962124	0.8711859549166382	0.12523833021307443	1.2276927899379722	0.9098578578905827	0.09907656908418706	0.9647372511127188	0.8970629540774466	0.06195054024940645	0.7273121369796713	0.8718677553712849	0.09053563142928836	0.6193244003607374	0.8539664874609656	0.057323637195376004	0.6022793266301242	0.8261700278026867	0.049862616190300794	0.6024617323665826	0.8909744390084325	
86	1.4333333333333331	0.36909607292892344	0.7728383185054952	0.8071720307438875	0.34259459023113503	0.30302347688945963	0.901446268476477	0.3662810591335219	-0.16303861347591492	1.0356862743570125	0.32344462774753013	-0.1821651998055332	0.8444565593991666	0.38283443850059484	-0.1901172925777863	0.8639257328834951	0.35775359708463755	-0.2394433372897151	1.1402035775967783	0.1763509991793491	0.7651308904498468	0.8753274454527397	0.19149795463093902	0.30234747556696556	0.9269321796813762	0.18451760070933404	-0.15601266909704659	1.0491172698755973	0.16646780393897237	-0.16227031284094318	0.8582978692639375	0.11284441815757137	-0.1832847458460361	0.9223883424642917	0.20692612779556688	-0.24104665256481347	1.119693067828814	0.28353561234319385	1.3055229457714383	0.8479176210556107	0.257203090695751	1.5452372134408845	0.7145519286539033	0.25480518498085647	1.4123413981778878	0.6700625373253933	0.42656269797420854	1.2113468332370911	0.7896157159189745	0.4822360017210444	0.933672213187009	0.878398863367411	0.48580850504803474	0.6883872973995213	0.8169690099400044	0.4289740680850145	0.5696074561002459	0.8269938375988167	0.43893691726391515	0.5431013832629628	0.8187052563600854	0.46075357682234663	0.5382542743584551	0.8709629887442406	0.1253087202728128	1.227663050885085	0.9100482492685893	0.09907662253876659	0.964768576410963	0.8971930887066105	0.06194792578455055	0.7273615842630937	0.8718329630281489	0.09048711386298922	0.6189472207746948	0.8540778260632254	0.05812908412779691	0.6011072277125746	0.8282834204316453	0.04993791162605442	0.6015237460970405	0.8909714731827515	
87	1.45	0.36911796655902973	0.7724647303512975	0.8071119569068331	0.34300086196337093	0.3029796073509925	0.9015327057545306	0.36627943461214824	-0.16279892385963746	1.0357879759983877	0.32292290086177244	-0.18359018129813584	0.84693619216541	0.3828654887068123	-0.19007000861098983	0.8638321176497818	0.3577557082558862	-0.2394346665426429	1.140204210089331	0.17600166672761336	0.7643994659661837	0.8752547632280097	0.1914895868384846	0.30236019665270153	0.9269279346784242	0.18447671160943024	-0.15595310060652198	1.0490770571307642	0.16665610345199483	-0.16333087530846674	0.8587396352914186	0.11250921025948721	-0.183864705115316	0.9240219806393424	0.2069701210854869	-0.24096802590855262	1.1196802592561987	0.2835478693194039	1.3050596405926644	0.8479962667608741	0.25713036091564884	1.54543924562395	0.714448128682839	0.254110425800799	1.4115787920111034	0.6701983760287973	0.4262305909531021	1.2111049411155677	0.7921137054311373	0.4822482087230011	0.9336507787027145	0.8783800278612557	0.486744055094983	0.6886183903292094	0.8167124460697988	0.42898021441567735	0.5696017932395435	0.8270353084020716	0.438766183994997	0.5441456564194197	0.8183469294884123	0.4606870448974998	0.5389748710263613	0.870851072134425	0.12542612619518095	1.2272665958160096	0.9103033188888292	0.09904761482468405	0.964832447078597	0.8973484001329273	0.06194815408545675	0.7274241798073975	0.8718126099593708	0.09043404479020842	0.6183363870766106	0.8542446051254906	0.05915399211891617	0.6000592449242502	0.8310651949510338	0.05003931086712411	0.6006884342764907	0.8909017283481478	
88	1.4666666666666666	0.36914421892022276	0.7720097603419882	0.8070633999774751	0.3432946690256141	0.3029660210501181	0.9015813532115562	0.3662805544502814	-0.16261038671425776	1.035859713737104	0.32224783564202764	-0.18522457819166374	0.8498496831338783	0.3828976135714192	-0.19002801703704067	0.8637491782378938	0.3577555417071765	-0.2394204723050134	1.1401988394065143	0.17572185759499345	0.7636049897299266	0.8753115539882119	0.19148230851533682	0.3023823695733087	0.9269176235096883	0.1843846330163184	-0.15587116803236628	1.048989893868992	0.16679783137250936	-0.1641132012252956	0.8590633134821601	0.11259484847453717	-0.1837133324840819	0.9236841410062414	0.2070124160357647	-0.24089262108963624	1.119666061430391	0.28354450231562656	1.3046193084021351	0.8479837776271174	0.25706147745309127	1.546015845707886	0.7143907708400579	0.25370698381756257	1.41086496206914	0.6703532661883743	0.42585593310721137	1.210835910655084	0.794946064292003	0.48225666107270615	0.933649868874188	0.8783392906928438	0.4872962267908203	0.688752932099185	0.816636335704682	0.4289999806220464	0.5696475136079542	0.8270794766708899	0.43855261029220205	0.5455490252453419	0.8179673220303816	0.4606413100486657	0.5396558404259371	0.8707909342245714	0.12551052246770894	1.2266516985320084	0.9104073030796391	0.09897740100669372	0.9647951387031345	0.8974953984413171	0.061946870509334506	0.7272181807895584	0.8718646563434032	0.09040158357845876	0.6175649995528284	0.8544502815302197	0.06017535362214299	0.5992859042384553	0.8338998815224845	0.050148006390007466	0.600057632750414	0.8908220623764466	
89	1.4833333333333334	0.36916657840490813	0.7714925875357515	0.8070222848148881	0.3434729747509841	0.30297817974149677	0.901591540009668	0.3662833034454713	-0.1624627050499312	1.0359052592612792	0.3216668005172739	-0.1868819102029449	0.8528336850090015	0.3829249176378169	-0.19000094957927655	0.863700692267909	0.3577557152021698	-0.23941362740944389	1.1401901936172574	0.17550902345225858	0.7628264602784842	0.8754892483262193	0.191476668024481	0.30240950946917855	0.9269036010685626	0.18424480572780716	-0.15577807938941035	1.048863057251719	0.16684700803044156	-0.16436771702422942	0.8591701146681604	0.11302476977603355	-0.18284208753918108	0.9217308374541672	0.20704680009166476	-0.24083368494723842	1.1196535653348145	0.28357302793569983	1.3040836940273186	0.8479980783763903	0.25700732881747546	1.5467873062932558	0.7143676463118529	0.25374016705530966	1.4102703130095446	0.6705135658856993	0.4255413877584883	1.2106079459146102	0.7973418617120895	0.48226043224882786	0.9336689406119247	0.8782777386974354	0.48749812053275	0.6888209354890592	0.8165947300428685	0.4290225450094749	0.5697268161504029	0.8271167054795361	0.43839948227403364	0.5468937342392279	0.8176664012481881	0.4606049043334509	0.5401825367908761	0.8706767476024344	0.12542922537493426	1.2259933623566375	0.9100224482107333	0.09887270541255253	0.9644875350411015	0.8976016647128331	0.061940178192769216	0.7265168299522619	0.8720311817454236	0.09040195464555191	0.6167268156645862	0.85467767924522	0.0610827933748888	0.5987407521648413	0.8364765531992818	0.050237705060147436	0.5996949628569109	0.8908060715585363	
90	1.5	0.36918467781722397	0.7709742418773792	0.8069712861609369	0.3435420286042869	0.3030070945576605	0.9015675711704998	0.36628684510247883	-0.16235446531636746	1.0359252187498729	0.3212747709902398	-0.1883463882062865	0.8554589856004147	0.38293829305511795	-0.18999190019501144	0.8636890457786206	0.3577555898770802	-0.23941851854242166	1.1401817626574935	0.1753182037807871	0.7621711565235993	0.8756648680402943	0.19147325379393865	0.3024356555098283	0.9268893236910326	0.18405558061429814	-0.1556810327878632	1.0487109731659403	0.16679582013752914	-0.16404924856759726	0.8590403956063745	0.11355151477298307	-0.18154108170650735	0.9192538987534689	0.20707534143373432	-0.24079662220477197	1.1196442343836186	0.2836600662430853	1.3033696698641821	0.848125568013205	0.2569758636412167	1.547532499421822	0.7143586846433663	0.254202152344422	1.409860701511762	0.6706570674994994	0.4253449554993635	1.2104568275786638	0.7988766945326504	0.48225899360832003	0.933698141011573	0.8782162166764811	0.48751033116279996	0.6888748865809476	0.8164919809467426	0.4290385700768738	0.5698136343501694	0.8271415223184627	0.4384666810472925	0.5478149157651729	0.8175071525796305	0.46056280582611264	0.5405568187370917	0.8704884969643087	0.12510880625060458	1.2253635730905539	0.9090046670498534	0.09874970103538114	0.9638751996576227	0.8976489055466663	0.061929243826564145	0.7253132003384137	0.8723065530348877	0.0904356490398707	0.6159260457831426	0.8549104703322986	0.06181953990592094	0.5982924218795048	0.8386257630338455	0.050287253577488714	0.5995897305000377	0.890887961361523	
